<?xml version="1.0" encoding="UTF-8"?>
<svg width="69px" height="94px" viewBox="0 0 69 94" version="1.1" xmlns="http://www.w3.org/2000/svg" xmlns:xlink="http://www.w3.org/1999/xlink">
    <!-- Generator: Sketch 52.5 (67469) - http://www.bohemiancoding.com/sketch -->
    <title>pic</title>
    <desc>Created with Sketch.</desc>
    <defs>
        <rect id="path-1" x="0" y="0" width="71" height="95"></rect>
    </defs>
    <g id="wireframe" stroke="none" stroke-width="1" fill="none" fill-rule="evenodd">
        <g id="live" transform="translate(-1330.000000, -519.000000)">
            <g id="livechat-copy" transform="translate(1316.000000, 414.000000)">
                <g id="pic" transform="translate(12.000000, 104.000000)">
                    <mask id="mask-2" fill="white">
                        <use xlink:href="#path-1"></use>
                    </mask>
                    <g id="Rectangle"></g>
                    <g id="Group-105" mask="url(#mask-2)">
                        <g transform="translate(2.000000, 1.000000)">
                            <path d="M79.5931765,37.8462059 L55.9452353,105.020324 C54.7572941,108.395029 51.0584706,110.167382 47.6840588,108.979441 L17.2184706,98.2541471 C13.8440588,97.0662059 12.0717059,93.3676765 13.2596471,89.9932647 L36.9075882,22.8191471 C38.0955294,19.4447353 41.7940588,17.6720882 45.1687647,18.8600294 L75.6343529,29.5853235 C79.0087647,30.7732647 80.7811176,34.4717941 79.5931765,37.8462059" id="Fill-1" fill="#0DB5FF"></path>
                            <path d="M77.4547941,37.1107647 L53.8068529,104.285176 C52.6189118,107.659294 48.9200882,109.432235 45.5456765,108.244294 L15.0803824,97.519 C11.7056765,96.3310588 9.93332353,92.6322353 11.1212647,89.2578235 L34.7692059,22.0837059 C35.9571471,18.7092941 39.6556765,16.9366471 43.0303824,18.1245882 L73.4959706,28.8498824 C76.8703824,30.0378235 78.6427353,33.7363529 77.4547941,37.1107647" id="Fill-3" fill="#032B4C"></path>
                            <polygon id="Fill-5" fill="#F3FCFF" points="75.1972059 37.5627353 53.0186765 100.562147 13.5536765 86.6686176 35.7322059 23.6695"></polygon>
                            <polygon id="Fill-9" fill="#FFF9EE" points="65.3112353 34.0824412 31.7941765 93.0900882 13.5535882 86.6686176 35.7324118 23.6695"></polygon>
                            <path d="M43.1194118,83.4044412 C42.0035294,86.9779706 38.6367647,89.1062059 35.5991176,88.1576765 C32.5614706,87.2094412 31.0035294,83.5435588 32.1194118,79.9697353 C33.2352941,76.3962059 36.6023529,74.2682647 39.64,75.2165 C42.6773529,76.1650294 44.2352941,79.8309118 43.1194118,83.4044412" id="Fill-11" fill="#BDE5E0"></path>
                            <path d="M35.3109412,78.3030588 C35.7735882,77.6295294 37.2591765,76.9368824 38.4206471,76.9883529 C38.7232941,77.0018824 38.9559412,77.2612941 38.9518235,77.5639412 C38.9421176,78.2857059 38.8853529,79.2392353 38.8462353,79.8286471 C38.8256471,80.1333529 38.5694706,80.3671765 38.2641765,80.3601176 L36.7250588,80.2027647 C36.3097647,81.3418824 36.3862353,82.5033529 36.6803529,83.6745294 L38.1747647,83.6351176 C38.4897647,83.6251176 38.753,83.8721765 38.763,84.1868824 L38.828,86.2054118 C38.8382941,86.5262941 38.5832941,86.7945294 38.2624118,86.7942353 C37.4144706,86.7933529 36.0635882,86.5312941 35.4009412,85.9780588 C34.3453529,85.0968824 34.4397647,79.5712941 35.3109412,78.3030588" id="Fill-13" fill="#15CC00"></path>
                            <path d="M28.6800882,52.2920294 C27.1765588,63.8882059 27.4312647,66.7593824 17.0924412,61.3464412 L15.1456765,65.6040882 C27.9862647,72.5864412 32.3171471,68.8108529 31.2721471,56.2252647 L28.6800882,52.2920294 Z" id="Fill-15" fill="#FFFFFF"></path>
                            <path d="M17.3011176,61.7505882 C16.5343529,59.6455882 12.6693529,54.3302941 11.5990588,54.6870588 C10.6064118,55.0176471 12.6134706,58.5447059 12.6134706,58.5447059 C12.6134706,58.5447059 3.32964706,58.2726471 2.96817647,59.3244118 C2.64405882,60.2670588 8.33905882,60.465 8.33905882,60.465 L8.27729412,60.6767647 C8.27729412,60.6767647 1.90582353,60.0382353 1.75582353,60.9823529 C1.62023529,61.8394118 7.65082353,62.6973529 7.65082353,62.6973529 L7.59258824,62.9523529 C7.59258824,62.9523529 2.39994118,62.1282353 2.32347059,63.0273529 C2.26905882,63.6714706 7.67552941,64.7429412 7.67552941,64.7429412 L7.65288235,64.9641176 C7.65288235,64.9641176 3.13935294,64.4264706 3.46523529,64.9829412 C4.697,67.0858824 13.3975882,67.1344118 15.5787647,65.4688235 C16.9237647,64.2308824 17.3011176,61.7505882 17.3011176,61.7505882" id="Fill-17" fill="#FCD9BE"></path>
                            <path d="M15.0857647,63.7631765 C12.9757647,63.1675882 12.729,61.072 12.5407647,59.1905294 C12.5351765,59.1367059 12.4584118,59.1455294 12.4578235,59.1978824 C12.4425294,60.9140588 12.8092941,63.7602353 15.0634118,63.8855294 C15.1422353,63.8899412 15.164,63.7852353 15.0857647,63.7631765" id="Fill-19" fill="#F2B197"></path>
                            <path d="M17.0808235,29.1127353 C17.2831765,32.7333235 15.2275882,35.7924412 12.4893529,35.9453824 C9.75082353,36.0986176 6.84905882,33.3165588 6.64641176,29.6962647 C6.44405882,26.0756765 9.01758824,22.9877353 11.7561176,22.8345 C14.4943529,22.6812647 16.8784706,25.4921471 17.0808235,29.1127353" id="Fill-21" fill="#FFBA5F"></path>
                            <path d="M7.17961765,28.3107941 C7.10520588,26.9807941 8.69020588,24.1266765 10.5690294,23.4110882 C12.4478529,22.6955 14.8831471,24.1293235 15.7728529,25.9984412 C13.1696176,27.8013824 7.23344118,29.2672647 7.17961765,28.3107941" id="Fill-23" fill="#FFE2B8"></path>
                            <path d="M19.3128529,28.9879412 C19.5634412,33.4682353 17.3299118,37.2364706 14.3240294,37.4047059 C11.3181471,37.5726471 8.67873529,34.0770588 8.42785294,29.5967647 C8.17755882,25.1161765 10.4107941,21.3479412 13.4166765,21.18 C16.4225588,21.0117647 19.0622647,24.5076471 19.3128529,28.9879412" id="Fill-25" fill="#FF7300"></path>
                            <path d="M8.4345,29.6848824 C8.7145,34.1225294 11.3383235,37.5713529 14.3239118,37.4045882 C16.8103824,37.2654706 18.7662647,34.6628235 19.2271471,31.2325294 C15.6880294,31.459 11.8792059,30.5675294 8.4345,29.6848824" id="Fill-27" fill="#FF4800"></path>
                            <path d="M46.2447059,10.4265 C46.2447059,10.4265 50.9658824,7.83855882 53.7261765,10.9662059 C56.4864706,14.0941471 56.8141176,22.3156176 56.3191176,24.3947353 C55.8244118,26.4741471 48.8244118,28.5579706 48.8832353,25.0579706 C48.9417647,21.5579706 49.5997059,13.6812059 48.1470588,12.6144412 C46.6941176,11.5479706 45.4682353,12.0926765 46.2447059,10.4265" id="Fill-29" fill="#A93B26"></path>
                            <path d="M56.1694706,19.0687941 C58.1000588,23.8496765 63.2971176,25.6511471 60.993,27.0964412 C59.5815294,27.9820294 57.8153529,27.3740882 57.8153529,27.3740882 C57.8153529,27.3740882 60.8888824,29.6837941 59.1412353,30.7052647 C57.3932941,31.7267353 54.3215294,29.9587941 54.3215294,29.9587941 C54.3215294,29.9587941 56.1832941,31.7946765 53.3959412,31.4679118 C50.6085882,31.1411471 48.0700588,28.6490882 49.0647647,22.3149706 C50.0588824,15.9849706 55.0674118,15.8537941 56.1694706,19.0687941" id="Fill-31" fill="#A93B26"></path>
                            <path d="M48.147,12.6145588 C48.267,12.7027941 48.3717059,12.8416176 48.4643529,13.0166176 C48.8243529,12.3707353 49.1743529,11.7192647 49.5099412,11.0589706 C49.7517059,10.5166176 49.9858235,9.97102941 50.2131765,9.42279412 C48.1293529,9.39485294 46.2446471,10.4266176 46.2446471,10.4266176 C45.4684706,12.0927941 46.6943529,11.5477941 48.147,12.6145588" id="Fill-33" fill="#932B25"></path>
                            <path d="M11.5506176,13.2545 C7.7665,26.0647941 5.98032353,42.9403824 28.3547353,50.4445 C32.2797353,51.1895 35.7612059,48.6656765 37.4962059,47.0500882 C41.5512059,32.2836176 47.9123824,10.9259706 39.0900294,6.29155882 C34.0020882,3.61891176 15.5609118,-0.322264706 11.5506176,13.2545" id="Fill-35" fill="#FCD9BE"></path>
                            <path d="M19.5133235,25.1091176 C18.3956765,25.0123529 16.5600882,28.7197059 17.7712647,28.9788235 C18.9824412,29.2382353 20.2130294,29.4005882 21.1556765,28.665 C21.6262647,28.2979412 20.3092059,25.1779412 19.5133235,25.1091176" id="Fill-37" fill="#FF8663"></path>
                            <path d="M19.6649706,33.1821176 C19.6649706,33.1821176 22.8285,33.6085882 27.3511471,32.2477059 C27.7626176,35.9412353 28.0993824,41.0088824 25.9302647,40.9797647 C22.8093824,40.938 19.6649706,33.1821176 19.6649706,33.1821176" id="Fill-39" fill="#F14445"></path>
                            <path d="M42.6271176,30.0439118 C42.6271176,30.0439118 41.6971176,15.4242059 39.2415294,12.8406765 C36.7865294,10.2574412 29.4677059,8.95597059 24.0359412,11.3809706 C19.6653529,13.3321471 14.6653529,13.4039118 12.4371176,11.0906765 C10.2085882,8.77714706 8.68711765,4.81097059 12.4494706,3.20920588 C16.2118235,1.60773529 38.2703529,0.301264706 41.9988824,6.44214706 C47.0056471,6.27832353 49.4591765,12.5868529 45.3327059,26.8395 C44.5800588,27.4812647 42.6271176,30.0439118 42.6271176,30.0439118" id="Fill-41" fill="#A93B26"></path>
                            <path d="M41.6881765,21.2392059 C42.3467059,25.6397941 42.627,30.0439118 42.627,30.0439118 C42.627,30.0439118 44.5799412,27.4812647 45.3328824,26.8397941 C46.3452353,23.3424412 46.9358235,20.2859706 47.1796471,17.6633235 C45.792,18.9795 43.6061176,20.5339118 41.6881765,21.2392059" id="Fill-43" fill="#932B25"></path>
                            <path d="M41.1964706,26.3952941 C41.1964706,26.3952941 47.7776471,23.9273529 46.8073529,30.2291176 C45.8373529,36.5305882 41.3855882,35.2061765 40.46,33.8647059 C40.74,30.4267647 41.1964706,26.3952941 41.1964706,26.3952941" id="Fill-45" fill="#FFC88B"></path>
                            <path d="M31.0307353,23.0072059 C31.1907353,24.4425 30.6689706,25.6786765 29.8651471,25.7680882 C29.0613235,25.8575 28.2801471,24.7666176 28.1201471,23.3316176 C27.9604412,21.8963235 28.4822059,20.6604412 29.2857353,20.5707353 C30.0898529,20.4813235 30.8707353,21.5722059 31.0307353,23.0072059" id="Fill-47" fill="#2A0000"></path>
                            <path d="M29.3978529,21.0718824 C29.3978529,21.0718824 27.8822647,20.4318824 27.2287353,19.7536471 C27.3813824,21.1230588 28.9543235,22.2768824 28.9543235,22.2768824 L29.3978529,21.0718824 Z" id="Fill-49" fill="#2A0000"></path>
                            <path d="M14.3562059,24.1829706 C14.5015,25.4876765 14.0270882,26.6109118 13.2965,26.6923824 C12.5659118,26.7738529 11.8559118,25.7820882 11.7106176,24.4776765 C11.5653235,23.1732647 12.0397353,22.0497353 12.7700294,21.9682647 C13.5009118,21.8867941 14.2109118,22.8782647 14.3562059,24.1829706" id="Fill-51" fill="#2A0000"></path>
                            <path d="M12.6113235,22.5722059 C12.6113235,22.5722059 11.2333824,21.9904412 10.6398529,21.3739706 C10.7786765,22.6189706 12.2083824,23.6675 12.2083824,23.6675 L12.6113235,22.5722059 Z" id="Fill-53" fill="#2A0000"></path>
                            <path d="M41.9504118,29.2158529 C41.9504118,29.2158529 44.6527647,28.2026176 44.2542353,30.7899706 C43.856,33.3770294 42.0283529,32.8332059 41.6483529,32.2826176 C41.7630588,30.8708529 41.9504118,29.2158529 41.9504118,29.2158529" id="Fill-55" fill="#FF9A7C"></path>
                            <path d="M20.7302941,2.22467647 C18.9805882,1.72644118 5.49470588,-1.98032353 1.49352941,1.42232353 C-2.64617647,4.94261765 2.77617647,7.85085294 6.19558824,8.03614706 C2.40323529,8.57232353 -2.05941176,12.2417353 1.57176471,14.3296765 C5.20352941,16.4176176 14.17,13.1902647 14.17,13.1902647 C14.17,13.1902647 8.64470588,16.6279118 13.3873529,17.2455588 C17.8885294,17.8320294 31.3144118,9.76908824 29.6847059,7.34497059 C28.055,4.92085294 25.8788235,3.69026471 20.7302941,2.22467647" id="Fill-57" fill="#A93B26"></path>
                            <path d="M14.1700882,13.1901765 C14.1700882,13.1901765 9.33067647,15.5498824 3.86008824,15.1034118 C-1.3505,14.6778235 0.411558824,11.1013529 0.865088235,10.9104706 C0.865088235,10.9104706 1.00361765,13.5519412 4.31126471,13.8772353 C8.23420588,14.2631176 14.1700882,13.1901765 14.1700882,13.1901765" id="Fill-59" fill="#932B25"></path>
                            <path d="M11.6451176,15.4951471 C10.8745294,16.9163235 12.706,17.6072059 15.2818824,17.1260294 C17.9180588,16.6342647 23.5251176,14.5533824 28.4327647,10.1939706 C31.741,6.97338235 22.2698235,13.3860294 18.1142353,14.6875 C15.2907059,15.5719118 12.6080588,16.4545588 11.6451176,15.4951471" id="Fill-61" fill="#932B25"></path>
                            <path d="M27.1250588,10.5151176 C27.1250588,10.5151176 31.4288824,9.79217647 34.1524118,10.4974706 C36.8753529,11.2033529 38.3994706,12.0774706 38.3994706,12.0774706 C38.3994706,12.0774706 36.4435882,9.82482353 34.1977059,9.34423529 C31.9518235,8.86364706 28.633,8.74629412 27.1250588,10.5151176" id="Fill-63" fill="#932B25"></path>
                            <path d="M42.0621471,23.4703529 C42.0621471,23.4703529 46.3318529,9.45711765 40.1406765,4.63123529 C44.1071471,2.94476471 47.5036176,10.4306471 44.1145,22.5044706 C43.2606765,22.9874118 42.0621471,23.4703529 42.0621471,23.4703529" id="Fill-65" fill="#FFE2B8"></path>
                            <path d="M43.4451471,17.9154412 C44.0057353,17.8369118 44.5880882,17.7392647 45.1689706,17.6036765 C44.9436765,19.1348529 44.6013235,20.7704412 44.1142647,22.5045588 C43.2607353,22.9875 42.0622059,23.4704412 42.0622059,23.4704412 C42.0622059,23.4704412 42.7880882,21.0854412 43.2072059,17.9454412 C43.2866176,17.9348529 43.3660294,17.9266176 43.4451471,17.9154412" id="Fill-67" fill="#FFBA5F"></path>
                            <path d="M39.9005,34.0913235 C38.5022647,38.2189706 36.0263824,40.5436765 31.5449118,41.2239706 L31.7628529,42.7845588 C36.4552059,42.5892647 40.3449118,38.8704412 40.9331471,35.0445588 L39.9005,34.0913235 Z" id="Fill-69" fill="#FF7300"></path>
                            <path d="M31.324,43.9004706 L29.1119412,44.2098824 C28.3116471,44.3216471 27.5722353,43.7637059 27.4604706,42.9634118 L27.3710588,42.3237059 C27.2592941,41.5234118 27.8169412,40.784 28.6172353,40.6722353 L30.8292941,40.3628235 C31.6295882,40.2510588 32.369,40.809 32.4810588,41.609 L32.5701765,42.249 C32.6822353,43.0492941 32.1242941,43.7887059 31.324,43.9004706" id="Fill-71" fill="#FFBA5F"></path>
                            <path d="M28.9871176,40.8573235 L30.5244706,40.6426176 C31.3012353,40.5337941 32.0032941,40.9599706 32.0918235,41.5943824 C32.1803529,42.2290882 31.5432941,42.2640882 30.7662353,42.3726176 L29.2262353,42.5687941 C28.4494706,42.6773235 27.8294706,42.8373235 27.7409412,42.2029118 C27.6521176,41.5682059 28.2100588,40.9661471 28.9871176,40.8573235" id="Fill-73" fill="#FFE2B8"></path>
                            <path d="M38.1217353,29.2572059 C37.8708529,33.7375 40.1046765,37.5057353 43.1102647,37.6739706 C46.1161471,37.8419118 48.7558529,34.3463235 49.0064412,29.8660294 C49.2570294,25.3857353 47.0235,21.6172059 44.0179118,21.4492647 C41.0120294,21.2810294 38.3723235,24.7769118 38.1217353,29.2572059" id="Fill-75" fill="#FF7300"></path>
                            <path d="M49.0000588,29.9541471 C48.7197647,34.3917941 46.0962353,37.8409118 43.1103529,37.6738529 C40.6241765,37.5347353 38.6682941,34.9320882 38.2074118,31.5017941 C41.7462353,31.7285588 45.5553529,30.8367941 49.0000588,29.9541471" id="Fill-77" fill="#FF4800"></path>
                            <path d="M40.3537353,29.382 C40.1513824,33.0025882 42.2069706,36.0617059 44.9452059,36.2146471 C47.6834412,36.3678824 50.5852059,33.5861176 50.7878529,29.9655294 C50.9902059,26.3449412 48.4166765,23.257 45.6784412,23.1037647 C42.9402059,22.9508235 40.5560882,25.7614118 40.3537353,29.382" id="Fill-79" fill="#FFBA5F"></path>
                            <path d="M50.2546471,28.5800882 C50.3290588,27.2500882 48.7440588,24.3959706 46.8655294,23.6803824 C44.9864118,22.9647941 42.5514118,24.3986176 41.6617059,26.2677353 C44.2649412,28.0706765 50.2011176,29.5365588 50.2546471,28.5800882" id="Fill-81" fill="#FFE2B8"></path>
                            <path d="M28.9009706,50.6163529 L36.5527353,46.4892941 C36.5527353,46.4892941 36.8971471,57.3884118 34.7945,58.8881176 C32.6915588,60.3875294 28.9009706,50.6163529 28.9009706,50.6163529" id="Fill-83" fill="#FFFFFF"></path>
                            <polygon id="Fill-85" fill="#FF7300" points="31.1398824 54.9712353 32.2319412 50.5182941 35.4269412 51.7982941 35.3581176 52.7268235 32.904 51.1812353 31.7484118 55.793"></polygon>
                            <path d="M28.0662941,50.3845588 L29.4574706,50.0598529 C29.4574706,50.0598529 32.5630588,58.1098529 34.1986471,57.2625 C35.7033529,56.4827941 35.3468824,46.8601471 35.3468824,46.8601471 L39.0551176,44.0519118 C39.0551176,44.0519118 45.9698235,54.6004412 47.8198235,56.3936765 C49.7707059,58.2845588 51.1724706,59.3272059 51.1724706,59.3272059 C52.1451176,64.4692647 48.7433529,73.8592647 41.9036471,75.4466176 C35.8027647,67.1795588 29.7865882,62.2201471 29.3115882,60.2536765 C28.6321765,57.4377941 28.0662941,50.3845588 28.0662941,50.3845588" id="Fill-87" fill="#1AB3FF"></path>
                            <path d="M39.0913824,45.2036176 C50.3146176,51.0089118 53.0460882,51.9497941 56.0037353,41.7897941 L61.4734412,44.0115588 C55.9455,56.6868529 53.6737353,57.9686176 41.4134412,49.6671471 L39.0913824,45.2036176 Z" id="Fill-89" fill="#FFFFFF"></path>
                            <path d="M61.8122647,35.2307647 C61.8122647,35.2307647 62.2981471,33.5075294 63.4213824,32.3187059 C65.2313824,30.4025294 64.6793235,29.6207647 63.4266765,30.0207647 C62.1384412,30.4319412 60.7319706,31.3960588 59.9681471,33.9313529 C59.7572647,34.6316471 58.4169706,36.3787059 58.4169706,36.3787059 C58.4169706,36.3787059 57.1887353,37.249 55.8655,38.8275294 C54.5419706,40.4063529 55.6581471,43.0375294 57.7352059,44.3051765 C60.3660882,45.9104706 62.6984412,45.6122353 64.8399118,42.9301765 C65.8046176,41.7219412 66.5290294,38.9881176 64.3872647,38.3266471 C64.3055,37.7528235 64.0166765,37.1348824 63.2531471,36.8013529 C62.9381471,36.0675294 62.8525588,35.3328235 61.8122647,35.2307647" id="Fill-91" fill="#FCD9BE"></path>
                            <path d="M59.1824412,40.6167941 C57.9727353,40.0865 57.3274412,39.1776765 57.9721471,37.8753235 C58.3906765,37.0297353 59.1950882,36.2332647 60.0389118,35.8073824 C60.1253824,35.7638529 60.0647941,35.6317941 59.9756765,35.6709118 C58.8124412,36.1820882 57.5086176,37.4170882 57.3677353,38.7415 C57.2550882,39.8026765 58.0424412,40.8823824 59.1677353,40.7832647 C59.2600882,40.7753235 59.2542059,40.6482647 59.1824412,40.6167941" id="Fill-93" fill="#F2B197"></path>
                            <path d="M63.2997941,40.9794118 C63.2495,40.8414706 63.1518529,40.9805882 63.1886176,41.1223529 C63.2836176,41.4888235 63.1830294,41.8273529 63.0389118,42.175 C62.9089118,42.4897059 62.7030294,42.7820588 62.4077353,42.9385294 C62.3171471,42.9864706 62.4227353,43.1323529 62.5274412,43.1176471 C63.4653824,42.9855882 63.5489118,41.6605882 63.2997941,40.9794118" id="Fill-95" fill="#F2B197"></path>
                            <path d="M62.7658529,38.7119118 C62.8117353,38.6916176 62.8426176,38.7592647 62.7985,38.7822059 C62.0493824,39.1727941 61.4305588,39.8686765 61.1449706,40.6695588 C60.8111471,41.6066176 61.3973235,42.0816176 62.0364412,42.3919118 C62.3705588,42.5422059 62.7382059,42.5522059 63.1073235,42.4863235 C63.0632059,42.5854412 63.0258529,42.6875 62.9943824,42.7916176 C62.6146765,42.8489706 62.2173235,42.7889706 61.8902647,42.6180882 C61.1061471,42.3219118 60.4902647,41.7757353 60.7132059,40.8704412 C60.9685,39.8342647 61.8349706,39.1230882 62.7658529,38.7119118" id="Fill-97" fill="#F2B197"></path>
                            <path d="M60.946,41.8321765 C60.6498235,41.5612941 60.3642353,41.4148235 60.0139412,41.2345294 C59.1121765,40.7704118 59.2348235,39.8230588 59.6954118,39.0992353 C60.2065882,38.2962941 60.9612941,37.6312941 61.731,37.0824706 C61.7818824,37.0462941 61.7283529,36.9636471 61.6730588,36.9907059 C60.5362941,37.5462941 59.121,38.631 58.8736471,39.9677647 C58.6439412,41.2095294 59.8301176,41.8333529 60.8945294,41.9724706 C60.9783529,41.9833529 60.9971765,41.8789412 60.946,41.8321765" id="Fill-99" fill="#F2B197"></path>
                            <path d="M55.4287059,40.904 C54.8010588,39.6528235 54.9542941,37.0125294 56.3760588,36.3925294 C57.5219412,35.8928235 60.4278235,37.1998824 60.8081176,38.4134118 C61.1884118,39.6269412 59.1775294,40.4504706 57.3225294,38.5298824 C56.3854706,39.5072353 55.4287059,40.904 55.4287059,40.904" id="Fill-101" fill="#FCD9BE"></path>
                            <path d="M59.3272059,37.0431471 C59.2625,37.0299118 59.2422059,37.0990294 59.2951471,37.1313824 C59.7089706,37.3834412 60.1566176,37.6163824 60.4916176,37.9437353 C61.1486765,38.5869706 61.0198529,39.3240294 60.1757353,39.5581471 C59.1072059,39.8546176 57.5839706,38.9602059 57.0857353,38.0763824 C57.0704412,38.0493235 57.0130882,38.0507941 57.0172059,38.0799118 C57.1098529,38.6787353 57.8222059,39.1505 58.4607353,39.4840294 C59.1886765,39.8646176 59.8619118,39.9687353 60.5177941,39.6743235 C61.8542647,39.0743235 60.8742647,37.3581471 59.3272059,37.0431471" id="Fill-103" fill="#F2B197"></path>
                        </g>
                    </g>
                </g>
            </g>
        </g>
    </g>
</svg>