<?xml version="1.0" encoding="UTF-8"?>
<svg width="67px" height="93px" viewBox="0 0 67 93" version="1.1" xmlns="http://www.w3.org/2000/svg" xmlns:xlink="http://www.w3.org/1999/xlink">
    <!-- Generator: Sketch 52.5 (67469) - http://www.bohemiancoding.com/sketch -->
    <title>pic</title>
    <desc>Created with Sketch.</desc>
    <defs>
        <rect id="path-1" x="0" y="0" width="71" height="95"></rect>
        <polygon id="path-3" points="0 154 90.9548262 154 90.9548262 0.0670410095 0 0.0670410095"></polygon>
        <polygon id="path-5" points="0.000104651163 0.0946744186 29.9609302 0.0946744186 29.9609302 11.5116279 0.000104651163 11.5116279"></polygon>
        <polygon id="path-7" points="0 0.00912121212 9.8069697 0.00912121212 9.8069697 7.87878788 0 7.87878788"></polygon>
        <polygon id="path-9" points="0 0.00912121212 9.8069697 0.00912121212 9.8069697 7.87878788 0 7.87878788"></polygon>
        <polygon id="path-11" points="6.66666667e-05 0.177433333 9.74833333 0.177433333 9.74833333 8 6.66666667e-05 8"></polygon>
        <polygon id="path-13" points="6.66666667e-05 0.177433333 17.0378418 0.177433333 17.0378418 8 6.66666667e-05 8"></polygon>
        <polygon id="path-15" points="0.134391662 0.0599404227 9.88523077 0.0599404227 9.88523077 31.87744 0.134391662 31.87744"></polygon>
    </defs>
    <g id="Symbols" stroke="none" stroke-width="1" fill="none" fill-rule="evenodd">
        <g id="Component/sidefix/CS" transform="translate(-16.000000, -106.000000)">
            <g id="livechat">
                <g id="pic" transform="translate(12.000000, 104.000000)">
                    <mask id="mask-2" fill="white">
                        <use xlink:href="#path-1"></use>
                    </mask>
                    <g id="Rectangle"></g>
                    <g id="Group-49" mask="url(#mask-2)">
                        <g transform="translate(4.000000, 2.000000)">
                            <g id="Group-16">
                                <path d="M47.3942677,25.8385605 L19.9202588,49.6024932 C18.9779685,50.417511 17.4670097,49.7362513 17.170852,48.5306467 C16.3045581,45.0043544 14.4759147,41.783633 11.8860025,39.2223102 L7.92717634,35.3075363 C6.11321039,33.5063354 3.17348638,33.3989727 1.35968351,35.3421903 L1.36033584,35.3421903 C-0.453630108,37.1234732 -0.453303943,40.0289075 1.36066201,41.8299464 L2.13367276,42.5733891 C3.8975724,44.3248759 4.89531075,46.6829706 4.89531075,49.1599253 L4.89531075,61.2818791 C4.89531075,65.0831367 6.37577312,68.728775 9.08277849,71.4167308 L11.9078556,74.2620873 L11.9078556,110.80381 L43.7089308,110.80381 L43.7089308,78.5352229 L43.7089308,74.2620873 L43.7089308,66.8305752 L46.6987211,62.6958938 L47.3942677,25.8385605 Z" id="Fill-1" fill="#FABB86"></path>
                                <polygon id="Fill-3" fill="#E3A574" points="10.5279172 71.3495117 27.8674943 82.05907 43.7597147 82.05907 43.7597147 70.0208366 13.2071986 70.0208366"></polygon>
                                <mask id="mask-4" fill="white">
                                    <use xlink:href="#path-3"></use>
                                </mask>
                                <g id="Clip-6"></g>
                                <polygon id="Fill-5" fill="#F5F5F5" mask="url(#mask-4)" points="9.98048208 115.23135 45.7545717 115.23135 45.7545717 82.0590053 9.98048208 82.0590053"></polygon>
                                <polygon id="Fill-7" fill="#DDDDDD" mask="url(#mask-4)" points="27.8675269 115.23135 45.7545717 115.23135 45.7545717 82.0590053 27.8675269 82.0590053"></polygon>
                                <polygon id="Fill-8" fill="#0C4A78" mask="url(#mask-4)" points="7.2865233 116.765844 48.4483674 116.765844 48.4483674 85.1281556 7.2865233 85.1281556"></polygon>
                                <polygon id="Fill-9" fill="#0A3C61" mask="url(#mask-4)" points="27.8673638 116.765844 48.4483674 116.765844 48.4483674 85.1281556 27.8673638 85.1281556"></polygon>
                                <path d="M46.7527667,38.0616425 L57.5936717,28.6846456 C59.4386233,27.0887781 59.6313867,24.3101388 58.0242093,22.4781703 C56.417195,20.6462019 53.6188634,20.454633 51.7737487,22.0505005 L40.9326806,31.4274974 L46.7527667,38.0616425 Z" id="Fill-10" fill="#FABB86" mask="url(#mask-4)"></path>
                                <path d="M44.5356935,72.4496967 L13.1994032,72.4496967 C12.1561649,72.4496967 11.2115914,72.0296379 10.5279498,71.3508072 C9.84414516,70.6718145 9.4212724,69.7340501 9.4212724,68.6981531 L9.4212724,3.81848749 C9.4212724,1.74653165 11.1127634,0.0669438486 13.1994032,0.0669438486 L44.5356935,0.0669438486 C46.6223333,0.0669438486 48.3138244,1.74653165 48.3138244,3.81848749 L48.3138244,68.6981531 C48.3138244,70.7701089 46.6223333,72.4496967 44.5356935,72.4496967" id="Fill-11" fill="#2F2B4B" mask="url(#mask-4)"></path>
                                <path d="M29.7565108,2.99096824 C29.7565108,3.47855394 29.3585896,3.87367487 28.8675484,3.87367487 C28.3766703,3.87367487 27.978586,3.47855394 27.978586,2.99096824 C27.978586,2.50338254 28.3766703,2.10826162 28.8675484,2.10826162 C29.3585896,2.10826162 29.7565108,2.50338254 29.7565108,2.99096824" id="Fill-12" fill="#FFFFFF" mask="url(#mask-4)"></path>
                                <polygon id="Fill-13" fill="#F5F5F5" mask="url(#mask-4)" points="12.1993817 64.2753249 45.5357151 64.2753249 45.5357151 5.42773081 12.1993817 5.42773081"></polygon>
                                <g id="Group-94" mask="url(#mask-4)">
                                    <g transform="translate(12.000000, 55.000000)">
                                        <g id="Group-5" stroke="none" stroke-width="1" fill="none" fill-rule="evenodd" transform="translate(0.000000, 0.635465)">
                                            <mask id="mask-6" fill="white">
                                                <use xlink:href="#path-5"></use>
                                            </mask>
                                            <g id="Clip-4"></g>
                                            <path d="M0.000104651163,0.0946744186 L0.000104651163,9.70374419 C0.000104651163,10.7007209 0.810802326,11.5117674 1.80777907,11.5117674 L28.1530116,11.5117674 C29.1499884,11.5117674 29.9610349,10.7007209 29.9610349,9.70374419 L29.9610349,0.0946744186 L0.000104651163,0.0946744186 Z" id="Fill-3" fill="#A7A9AC" mask="url(#mask-6)"></path>
                                        </g>
                                        <path d="M1.80763953,11.9264884 C0.932406977,11.9264884 0.220430233,11.2145116 0.220430233,10.3392791 L0.220430233,9.32765116 L29.7404302,9.32765116 L29.7404302,10.3392791 C29.7404302,11.2145116 29.0281047,11.9264884 28.1528721,11.9264884 L1.80763953,11.9264884 Z" id="Fill-6" stroke="none" fill="#F1F2F2" fill-rule="evenodd"></path>
                                        <path d="M23.9482674,11.9264884 L28.1531512,11.9264884 C29.0283837,11.9264884 29.7403605,11.2145116 29.7403605,10.3392791 L29.7403605,9.32765116 L23.9482674,9.32765116 L23.9482674,11.9264884 Z" id="Fill-8" stroke="none" fill="#A7A9AC" fill-rule="evenodd"></path>
                                        <path d="M25.7121977,10.7116977 C25.7121977,10.670186 25.6978953,10.6384419 25.668593,10.6161163 C25.6396395,10.5934419 25.587314,10.5711163 25.5112674,10.548093 C25.4355698,10.5254186 25.3752209,10.4999535 25.3302209,10.4720465 C25.2447558,10.4179767 25.2018488,10.3478605 25.2018488,10.261 C25.2018488,10.1853023 25.2325465,10.1232093 25.2946395,10.0736744 C25.3560349,10.0244884 25.4366163,10.0000698 25.5353372,10.0000698 C25.6009186,10.0000698 25.6591744,10.0119302 25.7104535,10.036 C25.7617326,10.0604186 25.8018488,10.0946047 25.8311512,10.1392558 C25.8604535,10.183907 25.8751047,10.2334419 25.8751047,10.2875116 L25.7121977,10.2875116 C25.7121977,10.2390233 25.6968488,10.2006512 25.6658023,10.173093 C25.6351047,10.1455349 25.5911512,10.1319302 25.5339419,10.1319302 C25.4805698,10.1319302 25.4390581,10.1434419 25.4097558,10.1661163 C25.3801047,10.1887907 25.3654535,10.2205349 25.3654535,10.2613488 C25.3654535,10.2958837 25.3815,10.3244884 25.4132442,10.3471628 C25.4449884,10.370186 25.4976628,10.3925116 25.5709186,10.4137907 C25.6441744,10.4357674 25.7031279,10.4605349 25.7474302,10.488093 C25.7917326,10.516 25.8241744,10.548093 25.8447558,10.5840233 C25.8653372,10.6199535 25.8758023,10.661814 25.8758023,10.7103023 C25.8758023,10.7887907 25.8458023,10.8508837 25.7858023,10.8972791 C25.7254535,10.9436744 25.6441744,10.9666977 25.5412674,10.9666977 C25.4728953,10.9666977 25.4104535,10.9541395 25.3532442,10.9290233 C25.2963837,10.903907 25.2520814,10.8690233 25.2203372,10.8243721 C25.188593,10.7800698 25.1725465,10.7284419 25.1725465,10.6694884 L25.3361512,10.6694884 C25.3361512,10.7228605 25.3539419,10.7640233 25.3891744,10.7933256 C25.4247558,10.8226279 25.4749884,10.8372791 25.5412674,10.8372791 C25.5981279,10.8372791 25.640686,10.8261163 25.6696395,10.803093 C25.6978953,10.7800698 25.7121977,10.7493721 25.7121977,10.7116977" id="Fill-10" stroke="none" fill="#F1F2F2" fill-rule="evenodd"></path>
                                        <path d="M26.5706061,10.4153505 C26.5008386,10.4153505 26.4435499,10.4365145 26.4010088,10.4778805 C26.3579005,10.5197276 26.3301069,10.5774476 26.3187626,10.6515217 L26.8048659,10.6515217 L26.8048659,10.6356487 C26.7991937,10.5634986 26.7765051,10.5081836 26.7368001,10.4711465 C26.697095,10.4341095 26.6415079,10.4153505 26.5706061,10.4153505 M26.6012357,11.2417093 C26.4395794,11.2417093 26.3079855,11.1979383 26.2075885,11.1118392 C26.1071914,11.0252591 26.0567093,10.9103 26.0567093,10.7664808 L26.0567093,10.7400258 C26.0567093,10.6438257 26.0788307,10.5577266 26.1225062,10.4817285 C26.1661818,10.4062115 26.2280082,10.3470484 26.3068511,10.3052014 C26.3862612,10.2628733 26.4741795,10.2417093 26.5717405,10.2417093 C26.726023,10.2417093 26.8457053,10.2840373 26.9307876,10.3672504 C27.0147354,10.4509445 27.0567093,10.5697516 27.0567093,10.7231908 L27.0567093,10.8102519 L26.3142249,10.8102519 C26.3221659,10.889617 26.3527955,10.952628 26.4083826,10.9992851 C26.4634024,11.0454611 26.5326027,11.0685491 26.6159833,11.0685491 C26.7328296,11.0685491 26.8281217,11.0286261 26.9018596,10.948299 L27.0391256,11.0598911 C26.9937484,11.1176112 26.9330564,11.1623442 26.8570496,11.1940903 C26.7804756,11.2258363 26.6959606,11.2417093 26.6012357,11.2417093" id="Fill-12" stroke="none" fill="#F1F2F2" fill-rule="evenodd"></path>
                                        <path d="M27.0186279,10.2545116 L27.0235116,10.3354419 C27.0747907,10.273 27.142814,10.2416047 27.2268837,10.2416047 C27.3726977,10.2416047 27.4466512,10.3249767 27.449093,10.4920698 L27.449093,10.9539302 L27.2921163,10.9539302 L27.2921163,10.5007907 C27.2921163,10.4564884 27.2823488,10.4233488 27.2635116,10.4024186 C27.2439767,10.3807907 27.2129302,10.3703256 27.1693256,10.3703256 C27.1058372,10.3703256 27.0587442,10.3989302 27.0276977,10.4561395 L27.0276977,10.9539302 L26.8707209,10.9539302 L26.8707209,10.2545116 L27.0186279,10.2545116 Z" id="Fill-14" stroke="none" fill="#F1F2F2" fill-rule="evenodd"></path>
                                        <path d="M27.915427,10.6125581 C27.915427,10.6837209 27.9376366,10.739186 27.9820557,10.7789535 C28.0270443,10.8190698 28.0908257,10.8386047 28.1728302,10.8386047 C28.2776138,10.8386047 28.3544931,10.81 28.4023291,10.7527907 L28.4023291,10.4545349 C28.355632,10.3983721 28.2798917,10.3704651 28.1751081,10.3704651 C28.0925341,10.3704651 28.0276138,10.3903488 27.9826252,10.430814 C27.9382061,10.4712791 27.915427,10.5319767 27.915427,10.6125581 M27.6591628,10.5989535 C27.6591628,10.4911628 27.6995956,10.405 27.7816001,10.3397674 C27.8630352,10.2745349 27.9729441,10.2417442 28.1096184,10.2417442 C28.2309168,10.2417442 28.3282972,10.2675581 28.4023291,10.319186 L28.4023291,9.96127907 L28.6591628,9.96127907 L28.6591628,10.9540698 L28.4268165,10.9540698 L28.4142881,10.8815116 C28.3379783,10.9383721 28.2354726,10.9669767 28.1073405,10.9669767 C27.9740831,10.9669767 27.8653131,10.9338372 27.7833086,10.867907 C27.7001651,10.8019767 27.6591628,10.7123256 27.6591628,10.5989535" id="Fill-16" stroke="none" fill="#F1F2F2" fill-rule="evenodd"></path>
                                        <path d="M3.5239186,9.3275814 L0.220430233,9.3275814 L0.220430233,10.3392093 C0.220430233,11.2144419 0.932406977,11.9264186 1.80763953,11.9264186 L3.5239186,11.9264186 L3.5239186,9.3275814 Z" id="Fill-18" stroke="none" fill="#A7A9AC" fill-rule="evenodd"></path>
                                        <path d="M2.72710465,10.507314 C2.72710465,10.9796395 2.3440814,11.3619651 1.87210465,11.3619651 C1.40012791,11.3619651 1.01745349,10.9796395 1.01745349,10.507314 C1.01745349,10.0349884 1.40012791,9.65266279 1.87210465,9.65266279 C2.3440814,9.65266279 2.72710465,10.0349884 2.72710465,10.507314 Z" id="Stroke-20" stroke="#F1F2F2" stroke-width="1" fill="none"></path>
                                        <path d="M1.87203488,10.0661395 L2.30912791,10.5074186" id="Stroke-22" stroke="#F1F2F2" stroke-width="1" fill="none" stroke-linecap="round"></path>
                                        <path d="M1.87203488,10.0661395 L1.4352907,10.5074186" id="Stroke-24" stroke="#F1F2F2" stroke-width="1" fill="none" stroke-linecap="round"></path>
                                        <path d="M1.87203488,10.9484535 L1.87203488,10.0662442" id="Stroke-26" stroke="#F1F2F2" stroke-width="1" fill="none" stroke-linecap="round"></path>
                                        <path d="M2.99452326,3.4045 L1.20638372,3.4045 C0.965686047,3.4045 0.770686047,3.20915116 0.770686047,2.96845349 L0.770686047,1.68822093 C0.770686047,1.44717442 0.965686047,1.25217442 1.20638372,1.25217442 L2.99452326,1.25217442 C3.23522093,1.25217442 3.43056977,1.44717442 3.43056977,1.68822093 L3.43056977,2.96845349 C3.43056977,3.20915116 3.23522093,3.4045 2.99452326,3.4045" id="Fill-28" stroke="none" fill="#F1F2F2" fill-rule="evenodd"></path>
                                        <path d="M6.22227907,3.4045 L4.43413953,3.4045 C4.19344186,3.4045 3.99844186,3.20915116 3.99844186,2.96845349 L3.99844186,1.68822093 C3.99844186,1.44717442 4.19344186,1.25217442 4.43413953,1.25217442 L6.22227907,1.25217442 C6.46297674,1.25217442 6.65832558,1.44717442 6.65832558,1.68822093 L6.65832558,2.96845349 C6.65832558,3.20915116 6.46297674,3.4045 6.22227907,3.4045" id="Fill-30" stroke="none" fill="#F1F2F2" fill-rule="evenodd"></path>
                                        <path d="M9.45003488,3.4045 L7.66189535,3.4045 C7.42119767,3.4045 7.22619767,3.20915116 7.22619767,2.96845349 L7.22619767,1.68822093 C7.22619767,1.44717442 7.42119767,1.25217442 7.66189535,1.25217442 L9.45003488,1.25217442 C9.69073256,1.25217442 9.8860814,1.44717442 9.8860814,1.68822093 L9.8860814,2.96845349 C9.8860814,3.20915116 9.69073256,3.4045 9.45003488,3.4045" id="Fill-32" stroke="none" fill="#F1F2F2" fill-rule="evenodd"></path>
                                        <path d="M12.6778256,3.4045 L10.889686,3.4045 C10.6489884,3.4045 10.4539884,3.20915116 10.4539884,2.96845349 L10.4539884,1.68822093 C10.4539884,1.44717442 10.6489884,1.25217442 10.889686,1.25217442 L12.6778256,1.25217442 C12.9185233,1.25217442 13.1138721,1.44717442 13.1138721,1.68822093 L13.1138721,2.96845349 C13.1138721,3.20915116 12.9185233,3.4045 12.6778256,3.4045" id="Fill-34" stroke="none" fill="#F1F2F2" fill-rule="evenodd"></path>
                                        <path d="M15.9055814,3.4045 L14.1174419,3.4045 C13.877093,3.4045 13.6817442,3.20915116 13.6817442,2.96845349 L13.6817442,1.68822093 C13.6817442,1.44717442 13.877093,1.25217442 14.1174419,1.25217442 L15.9055814,1.25217442 C16.1462791,1.25217442 16.3416279,1.44717442 16.3416279,1.68822093 L16.3416279,2.96845349 C16.3416279,3.20915116 16.1462791,3.4045 15.9055814,3.4045" id="Fill-36" stroke="none" fill="#F1F2F2" fill-rule="evenodd"></path>
                                        <path d="M19.1333372,3.4045 L17.3451977,3.4045 C17.1045,3.4045 16.9095,3.20915116 16.9095,2.96845349 L16.9095,1.68822093 C16.9095,1.44717442 17.1045,1.25217442 17.3451977,1.25217442 L19.1333372,1.25217442 C19.3740349,1.25217442 19.5693837,1.44717442 19.5693837,1.68822093 L19.5693837,2.96845349 C19.5693837,3.20915116 19.3740349,3.4045 19.1333372,3.4045" id="Fill-38" stroke="none" fill="#F1F2F2" fill-rule="evenodd"></path>
                                        <path d="M22.3611279,3.4045 L20.5729884,3.4045 C20.3326395,3.4045 20.1372907,3.20915116 20.1372907,2.96845349 L20.1372907,1.68822093 C20.1372907,1.44717442 20.3326395,1.25217442 20.5729884,1.25217442 L22.3611279,1.25217442 C22.6018256,1.25217442 22.7971744,1.44717442 22.7971744,1.68822093 L22.7971744,2.96845349 C22.7971744,3.20915116 22.6018256,3.4045 22.3611279,3.4045" id="Fill-40" stroke="none" fill="#F1F2F2" fill-rule="evenodd"></path>
                                        <path d="M25.5892326,3.4045 L23.8007442,3.4045 C23.5603953,3.4045 23.3650465,3.20915116 23.3650465,2.96845349 L23.3650465,1.68822093 C23.3650465,1.44717442 23.5603953,1.25217442 23.8007442,1.25217442 L25.5892326,1.25217442 C25.8295814,1.25217442 26.0249302,1.44717442 26.0249302,1.68822093 L26.0249302,2.96845349 C26.0249302,3.20915116 25.8295814,3.4045 25.5892326,3.4045" id="Fill-42" stroke="none" fill="#F1F2F2" fill-rule="evenodd"></path>
                                        <path d="M28.8169884,3.4045 L27.0285,3.4045 C26.7881512,3.4045 26.5928023,3.20915116 26.5928023,2.96845349 L26.5928023,1.68822093 C26.5928023,1.44717442 26.7881512,1.25217442 27.0285,1.25217442 L28.8169884,1.25217442 C29.0573372,1.25217442 29.252686,1.44717442 29.252686,1.68822093 L29.252686,2.96845349 C29.252686,3.20915116 29.0573372,3.4045 28.8169884,3.4045" id="Fill-44" stroke="none" fill="#F1F2F2" fill-rule="evenodd"></path>
                                        <path d="M2.99452326,6.27525581 L1.20638372,6.27525581 C0.965686047,6.27525581 0.770686047,6.07990698 0.770686047,5.83955814 L0.770686047,4.55897674 C0.770686047,4.31827907 0.965686047,4.12293023 1.20638372,4.12293023 L2.99452326,4.12293023 C3.23522093,4.12293023 3.43056977,4.31827907 3.43056977,4.55897674 L3.43056977,5.83955814 C3.43056977,6.07990698 3.23522093,6.27525581 2.99452326,6.27525581" id="Fill-46" stroke="none" fill="#F1F2F2" fill-rule="evenodd"></path>
                                        <path d="M6.22227907,6.27525581 L4.43413953,6.27525581 C4.19344186,6.27525581 3.99844186,6.07990698 3.99844186,5.83955814 L3.99844186,4.55897674 C3.99844186,4.31827907 4.19344186,4.12293023 4.43413953,4.12293023 L6.22227907,4.12293023 C6.46297674,4.12293023 6.65832558,4.31827907 6.65832558,4.55897674 L6.65832558,5.83955814 C6.65832558,6.07990698 6.46297674,6.27525581 6.22227907,6.27525581" id="Fill-48" stroke="none" fill="#F1F2F2" fill-rule="evenodd"></path>
                                        <path d="M9.45003488,6.27525581 L7.66189535,6.27525581 C7.42119767,6.27525581 7.22619767,6.07990698 7.22619767,5.83955814 L7.22619767,4.55897674 C7.22619767,4.31827907 7.42119767,4.12293023 7.66189535,4.12293023 L9.45003488,4.12293023 C9.69073256,4.12293023 9.8860814,4.31827907 9.8860814,4.55897674 L9.8860814,5.83955814 C9.8860814,6.07990698 9.69073256,6.27525581 9.45003488,6.27525581" id="Fill-50" stroke="none" fill="#F1F2F2" fill-rule="evenodd"></path>
                                        <path d="M12.6778256,6.27525581 L10.889686,6.27525581 C10.6489884,6.27525581 10.4539884,6.07990698 10.4539884,5.83955814 L10.4539884,4.55897674 C10.4539884,4.31827907 10.6489884,4.12293023 10.889686,4.12293023 L12.6778256,4.12293023 C12.9185233,4.12293023 13.1138721,4.31827907 13.1138721,4.55897674 L13.1138721,5.83955814 C13.1138721,6.07990698 12.9185233,6.27525581 12.6778256,6.27525581" id="Fill-52" stroke="none" fill="#F1F2F2" fill-rule="evenodd"></path>
                                        <path d="M15.9055814,6.27525581 L14.1174419,6.27525581 C13.877093,6.27525581 13.6817442,6.07990698 13.6817442,5.83955814 L13.6817442,4.55897674 C13.6817442,4.31827907 13.877093,4.12293023 14.1174419,4.12293023 L15.9055814,4.12293023 C16.1462791,4.12293023 16.3416279,4.31827907 16.3416279,4.55897674 L16.3416279,5.83955814 C16.3416279,6.07990698 16.1462791,6.27525581 15.9055814,6.27525581" id="Fill-54" stroke="none" fill="#F1F2F2" fill-rule="evenodd"></path>
                                        <path d="M19.1333372,6.27525581 L17.3451977,6.27525581 C17.1045,6.27525581 16.9095,6.07990698 16.9095,5.83955814 L16.9095,4.55897674 C16.9095,4.31827907 17.1045,4.12293023 17.3451977,4.12293023 L19.1333372,4.12293023 C19.3740349,4.12293023 19.5693837,4.31827907 19.5693837,4.55897674 L19.5693837,5.83955814 C19.5693837,6.07990698 19.3740349,6.27525581 19.1333372,6.27525581" id="Fill-56" stroke="none" fill="#F1F2F2" fill-rule="evenodd"></path>
                                        <path d="M22.3611279,6.27525581 L20.5729884,6.27525581 C20.3326395,6.27525581 20.1372907,6.07990698 20.1372907,5.83955814 L20.1372907,4.55897674 C20.1372907,4.31827907 20.3326395,4.12293023 20.5729884,4.12293023 L22.3611279,4.12293023 C22.6018256,4.12293023 22.7971744,4.31827907 22.7971744,4.55897674 L22.7971744,5.83955814 C22.7971744,6.07990698 22.6018256,6.27525581 22.3611279,6.27525581" id="Fill-58" stroke="none" fill="#F1F2F2" fill-rule="evenodd"></path>
                                        <path d="M25.5892326,6.27525581 L23.8007442,6.27525581 C23.5603953,6.27525581 23.3650465,6.07990698 23.3650465,5.83955814 L23.3650465,4.55897674 C23.3650465,4.31827907 23.5603953,4.12293023 23.8007442,4.12293023 L25.5892326,4.12293023 C25.8295814,4.12293023 26.0249302,4.31827907 26.0249302,4.55897674 L26.0249302,5.83955814 C26.0249302,6.07990698 25.8295814,6.27525581 25.5892326,6.27525581" id="Fill-60" stroke="none" fill="#F1F2F2" fill-rule="evenodd"></path>
                                        <path d="M28.8169884,6.27525581 L27.0285,6.27525581 C26.7881512,6.27525581 26.5928023,6.07990698 26.5928023,5.83955814 L26.5928023,4.55897674 C26.5928023,4.31827907 26.7881512,4.12293023 27.0285,4.12293023 L28.8169884,4.12293023 C29.0573372,4.12293023 29.252686,4.31827907 29.252686,4.55897674 L29.252686,5.83955814 C29.252686,6.07990698 29.0573372,6.27525581 28.8169884,6.27525581" id="Fill-62" stroke="none" fill="#F1F2F2" fill-rule="evenodd"></path>
                                        <path d="M2.99452326,8.93513953 L1.20638372,8.93513953 C0.965686047,8.93513953 0.770686047,8.7397907 0.770686047,8.49944186 L0.770686047,7.21851163 C0.770686047,6.97816279 0.965686047,6.78281395 1.20638372,6.78281395 L2.99452326,6.78281395 C3.23522093,6.78281395 3.43056977,6.97816279 3.43056977,7.21851163 L3.43056977,8.49944186 C3.43056977,8.7397907 3.23522093,8.93513953 2.99452326,8.93513953" id="Fill-64" stroke="none" fill="#F1F2F2" fill-rule="evenodd"></path>
                                        <path d="M6.22227907,8.93513953 L4.43413953,8.93513953 C4.19344186,8.93513953 3.99844186,8.7397907 3.99844186,8.49944186 L3.99844186,7.21851163 C3.99844186,6.97816279 4.19344186,6.78281395 4.43413953,6.78281395 L6.22227907,6.78281395 C6.46297674,6.78281395 6.65832558,6.97816279 6.65832558,7.21851163 L6.65832558,8.49944186 C6.65832558,8.7397907 6.46297674,8.93513953 6.22227907,8.93513953" id="Fill-66" stroke="none" fill="#F1F2F2" fill-rule="evenodd"></path>
                                        <path d="M9.45003488,8.93513953 L7.66189535,8.93513953 C7.42119767,8.93513953 7.22619767,8.7397907 7.22619767,8.49944186 L7.22619767,7.21851163 C7.22619767,6.97816279 7.42119767,6.78281395 7.66189535,6.78281395 L9.45003488,6.78281395 C9.69073256,6.78281395 9.8860814,6.97816279 9.8860814,7.21851163 L9.8860814,8.49944186 C9.8860814,8.7397907 9.69073256,8.93513953 9.45003488,8.93513953" id="Fill-68" stroke="none" fill="#F1F2F2" fill-rule="evenodd"></path>
                                        <path d="M12.6778256,8.93513953 L10.889686,8.93513953 C10.6489884,8.93513953 10.4539884,8.7397907 10.4539884,8.49944186 L10.4539884,7.21851163 C10.4539884,6.97816279 10.6489884,6.78281395 10.889686,6.78281395 L12.6778256,6.78281395 C12.9185233,6.78281395 13.1138721,6.97816279 13.1138721,7.21851163 L13.1138721,8.49944186 C13.1138721,8.7397907 12.9185233,8.93513953 12.6778256,8.93513953" id="Fill-70" stroke="none" fill="#F1F2F2" fill-rule="evenodd"></path>
                                        <path d="M15.9055814,8.93513953 L14.1174419,8.93513953 C13.877093,8.93513953 13.6817442,8.7397907 13.6817442,8.49944186 L13.6817442,7.21851163 C13.6817442,6.97816279 13.877093,6.78281395 14.1174419,6.78281395 L15.9055814,6.78281395 C16.1462791,6.78281395 16.3416279,6.97816279 16.3416279,7.21851163 L16.3416279,8.49944186 C16.3416279,8.7397907 16.1462791,8.93513953 15.9055814,8.93513953" id="Fill-72" stroke="none" fill="#F1F2F2" fill-rule="evenodd"></path>
                                        <path d="M19.1333372,8.93513953 L17.3451977,8.93513953 C17.1045,8.93513953 16.9095,8.7397907 16.9095,8.49944186 L16.9095,7.21851163 C16.9095,6.97816279 17.1045,6.78281395 17.3451977,6.78281395 L19.1333372,6.78281395 C19.3740349,6.78281395 19.5693837,6.97816279 19.5693837,7.21851163 L19.5693837,8.49944186 C19.5693837,8.7397907 19.3740349,8.93513953 19.1333372,8.93513953" id="Fill-74" stroke="none" fill="#F1F2F2" fill-rule="evenodd"></path>
                                        <path d="M22.3611279,8.93513953 L20.5729884,8.93513953 C20.3326395,8.93513953 20.1372907,8.7397907 20.1372907,8.49944186 L20.1372907,7.21851163 C20.1372907,6.97816279 20.3326395,6.78281395 20.5729884,6.78281395 L22.3611279,6.78281395 C22.6018256,6.78281395 22.7971744,6.97816279 22.7971744,7.21851163 L22.7971744,8.49944186 C22.7971744,8.7397907 22.6018256,8.93513953 22.3611279,8.93513953" id="Fill-76" stroke="none" fill="#F1F2F2" fill-rule="evenodd"></path>
                                        <path d="M25.5892326,8.93513953 L23.8007442,8.93513953 C23.5603953,8.93513953 23.3650465,8.7397907 23.3650465,8.49944186 L23.3650465,7.21851163 C23.3650465,6.97816279 23.5603953,6.78281395 23.8007442,6.78281395 L25.5892326,6.78281395 C25.8295814,6.78281395 26.0249302,6.97816279 26.0249302,7.21851163 L26.0249302,8.49944186 C26.0249302,8.7397907 25.8295814,8.93513953 25.5892326,8.93513953" id="Fill-78" stroke="none" fill="#F1F2F2" fill-rule="evenodd"></path>
                                        <path d="M28.8169884,8.93513953 L27.0285,8.93513953 C26.7881512,8.93513953 26.5928023,8.7397907 26.5928023,8.49944186 L26.5928023,7.21851163 C26.5928023,6.97816279 26.7881512,6.78281395 27.0285,6.78281395 L28.8169884,6.78281395 C29.0573372,6.78281395 29.252686,6.97816279 29.252686,7.21851163 L29.252686,8.49944186 C29.252686,8.7397907 29.0573372,8.93513953 28.8169884,8.93513953" id="Fill-80" stroke="none" fill="#F1F2F2" fill-rule="evenodd"></path>
                                        <path d="M9.6370814,10.6272093 L13.3501047,10.6272093" id="Stroke-82" stroke="#A7A9AC" stroke-width="3" fill="none"></path>
                                        <path d="M14.8389767,10.6272093 L16.2723488,10.6272093" id="Stroke-84" stroke="#A7A9AC" stroke-width="3" fill="none"></path>
                                        <path d="M17.2099884,10.6272093 L19.7648721,10.6272093" id="Stroke-86" stroke="#A7A9AC" stroke-width="3" fill="none"></path>
                                        <path d="M4.56394186,10.6272093 L6.34545349,10.6272093" id="Stroke-88" stroke="#A7A9AC" stroke-width="3" fill="none"></path>
                                        <path d="M8.92677907,10.6272093 C8.92677907,11.1665116 8.48933721,11.6039535 7.95003488,11.6039535 C7.41038372,11.6039535 6.97294186,11.1665116 6.97294186,10.6272093 C6.97294186,10.0875581 7.41038372,9.65011628 7.95003488,9.65011628 C8.48933721,9.65011628 8.92677907,10.0875581 8.92677907,10.6272093" id="Fill-90" stroke="none" fill="#A7A9AC" fill-rule="evenodd"></path>
                                        <path d="M7.95010465,11.3177326 C8.33138372,11.3177326 8.64045349,11.0086628 8.64045349,10.6273837 L7.25940698,10.6273837 C7.25940698,11.0086628 7.56847674,11.3177326 7.95010465,11.3177326" id="Fill-92" stroke="none" fill="#FFFFFF" fill-rule="evenodd"></path>
                                    </g>
                                </g>
                                <g id="Group-10" mask="url(#mask-4)">
                                    <g transform="translate(34.000000, 18.000000)">
                                        <g id="Group-3" stroke-width="1" fill="none" transform="translate(0.000000, 0.293970)">
                                            <mask id="mask-8" fill="white">
                                                <use xlink:href="#path-7"></use>
                                            </mask>
                                            <g id="Clip-2"></g>
                                            <path d="M0.744515152,0.00912121212 L9.06239394,0.00912121212 C9.47390909,0.00912121212 9.80724242,0.342454545 9.80724242,0.753666667 L9.80724242,5.17518182 C9.80724242,5.58639394 9.47390909,5.91972727 9.06239394,5.91972727 L9.06239394,7.87881818 L7.10330303,5.91972727 L0.744515152,5.91972727 C0.33330303,5.91972727 -3.03030303e-05,5.58639394 -3.03030303e-05,5.17518182 L-3.03030303e-05,0.753666667 C-3.03030303e-05,0.342454545 0.33330303,0.00912121212 0.744515152,0.00912121212" id="Fill-1" fill="#FF685C" mask="url(#mask-8)"></path>
                                        </g>
                                        <path d="M4.90348485,2.96627273 C5.21136364,2.96627273 5.46075758,3.21566667 5.46075758,3.52354545 C5.46075758,3.83112121 5.21136364,4.08081818 4.90348485,4.08081818 C4.59560606,4.08081818 4.34621212,3.83112121 4.34621212,3.52354545 C4.34621212,3.21566667 4.59560606,2.96627273 4.90348485,2.96627273" id="Fill-4" fill="#FFFFFF"></path>
                                        <path d="M6.57030303,2.96627273 C6.87818182,2.96627273 7.12757576,3.21566667 7.12757576,3.52354545 C7.12757576,3.83112121 6.87818182,4.08081818 6.57030303,4.08081818 C6.26242424,4.08081818 6.0130303,3.83112121 6.0130303,3.52354545 C6.0130303,3.21566667 6.26242424,2.96627273 6.57030303,2.96627273" id="Fill-6" fill="#FFFFFF"></path>
                                        <path d="M3.23669697,2.96627273 C3.54457576,2.96627273 3.7939697,3.21566667 3.7939697,3.52354545 C3.7939697,3.83112121 3.54457576,4.08081818 3.23669697,4.08081818 C2.92912121,4.08081818 2.67942424,3.83112121 2.67942424,3.52354545 C2.67942424,3.21566667 2.92912121,2.96627273 3.23669697,2.96627273" id="Fill-8" fill="#FFFFFF"></path>
                                    </g>
                                </g>
                                <g id="Group-10-Copy" mask="url(#mask-4)">
                                    <g transform="translate(34.000000, 27.000000)">
                                        <g id="Group-3" stroke-width="1" fill="none" transform="translate(0.000000, 0.293970)">
                                            <mask id="mask-10" fill="white">
                                                <use xlink:href="#path-9"></use>
                                            </mask>
                                            <g id="Clip-2"></g>
                                            <path d="M0.744515152,0.00912121212 L9.06239394,0.00912121212 C9.47390909,0.00912121212 9.80724242,0.342454545 9.80724242,0.753666667 L9.80724242,5.17518182 C9.80724242,5.58639394 9.47390909,5.91972727 9.06239394,5.91972727 L9.06239394,7.87881818 L7.10330303,5.91972727 L0.744515152,5.91972727 C0.33330303,5.91972727 -3.03030303e-05,5.58639394 -3.03030303e-05,5.17518182 L-3.03030303e-05,0.753666667 C-3.03030303e-05,0.342454545 0.33330303,0.00912121212 0.744515152,0.00912121212" id="Fill-1" fill="#FF685C" mask="url(#mask-10)"></path>
                                        </g>
                                        <path d="M4.90348485,2.96627273 C5.21136364,2.96627273 5.46075758,3.21566667 5.46075758,3.52354545 C5.46075758,3.83112121 5.21136364,4.08081818 4.90348485,4.08081818 C4.59560606,4.08081818 4.34621212,3.83112121 4.34621212,3.52354545 C4.34621212,3.21566667 4.59560606,2.96627273 4.90348485,2.96627273" id="Fill-4" fill="#FFFFFF"></path>
                                        <path d="M6.57030303,2.96627273 C6.87818182,2.96627273 7.12757576,3.21566667 7.12757576,3.52354545 C7.12757576,3.83112121 6.87818182,4.08081818 6.57030303,4.08081818 C6.26242424,4.08081818 6.0130303,3.83112121 6.0130303,3.52354545 C6.0130303,3.21566667 6.26242424,2.96627273 6.57030303,2.96627273" id="Fill-6" fill="#FFFFFF"></path>
                                        <path d="M3.23669697,2.96627273 C3.54457576,2.96627273 3.7939697,3.21566667 3.7939697,3.52354545 C3.7939697,3.83112121 3.54457576,4.08081818 3.23669697,4.08081818 C2.92912121,4.08081818 2.67942424,3.83112121 2.67942424,3.52354545 C2.67942424,3.21566667 2.92912121,2.96627273 3.23669697,2.96627273" id="Fill-8" fill="#FFFFFF"></path>
                                    </g>
                                </g>
                                <g id="Group-10" mask="url(#mask-4)">
                                    <g transform="translate(14.000000, 8.000000)">
                                        <g id="Group-3" stroke-width="1" fill="none" transform="translate(0.000000, 0.155933)">
                                            <mask id="mask-12" fill="white">
                                                <use xlink:href="#path-11"></use>
                                            </mask>
                                            <g id="Clip-2"></g>
                                            <path d="M0.740066667,0.177433333 L9.0084,0.177433333 C9.41706667,0.177433333 9.7484,0.508766667 9.7484,0.917433333 L9.7484,5.31243333 C9.7484,5.72143333 9.41706667,6.05243333 9.0084,6.05243333 L2.6874,6.05243333 L0.740066667,8.0001 L0.740066667,6.05243333 C0.3314,6.05243333 6.66666667e-05,5.72143333 6.66666667e-05,5.31243333 L6.66666667e-05,0.917433333 C6.66666667e-05,0.508766667 0.3314,0.177433333 0.740066667,0.177433333" id="Fill-1" fill="#47B4D6" mask="url(#mask-12)"></path>
                                        </g>
                                        <path d="M4.8742,2.9421 C5.15953333,2.9421 5.39086667,3.17343333 5.39086667,3.45876667 C5.39086667,3.7441 5.15953333,3.97543333 4.8742,3.97543333 C4.58886667,3.97543333 4.35753333,3.7441 4.35753333,3.45876667 C4.35753333,3.17343333 4.58886667,2.9421 4.8742,2.9421" id="Fill-4" fill="#FFFFFF"></path>
                                        <path d="M6.4196,2.9421 C6.70493333,2.9421 6.93626667,3.17343333 6.93626667,3.45876667 C6.93626667,3.7441 6.70493333,3.97543333 6.4196,3.97543333 C6.13426667,3.97543333 5.90293333,3.7441 5.90293333,3.45876667 C5.90293333,3.17343333 6.13426667,2.9421 6.4196,2.9421" id="Fill-6" fill="#FFFFFF"></path>
                                        <path d="M3.32893333,2.9421 C3.61426667,2.9421 3.8456,3.17343333 3.8456,3.45876667 C3.8456,3.7441 3.61426667,3.97543333 3.32893333,3.97543333 C3.0436,3.97543333 2.81226667,3.7441 2.81226667,3.45876667 C2.81226667,3.17343333 3.0436,2.9421 3.32893333,2.9421" id="Fill-8" fill="#FFFFFF"></path>
                                    </g>
                                </g>
                                <g id="Group-10-Copy-2" mask="url(#mask-4)">
                                    <g transform="translate(14.000000, 36.000000)">
                                        <g id="Group-3" stroke-width="1" fill="none" transform="translate(0.000000, 0.155933)">
                                            <mask id="mask-14" fill="white">
                                                <use xlink:href="#path-13"></use>
                                            </mask>
                                            <g id="Clip-2"></g>
                                            <path d="M14.3427052,0.177433333 C14.7513719,0.177433333 15.0827052,0.508766667 15.0827052,0.917433333 L15.0827052,5.31243333 C15.0827052,5.72143333 14.7513719,6.05243333 14.3427052,6.05243333 L2.6874,6.05243333 L0.740066667,8.0001 L0.740066667,6.05243333 C0.3314,6.05243333 6.66666667e-05,5.72143333 6.66666667e-05,5.31243333 L6.66666667e-05,0.917433333 C6.66666667e-05,0.508766667 0.3314,0.177433333 0.740066667,0.177433333 L14.3427052,0.177433333 Z" id="Fill-1" fill="#47B4D6" mask="url(#mask-14)"></path>
                                        </g>
                                        <path d="M4.03333333,3.51666667 C4.03333333,3.802 3.802,4.03333333 3.51666667,4.03333333 C3.23133333,4.03333333 3,3.802 3,3.51666667 C3,3.23133333 3.23133333,3 3.51666667,3 C3.802,3 4.03333333,3.23133333 4.03333333,3.51666667 Z" id="Fill-8" fill="#FFFFFF"></path>
                                        <path d="M6.03333333,3.51666667 C6.03333333,3.802 5.802,4.03333333 5.51666667,4.03333333 C5.23133333,4.03333333 5,3.802 5,3.51666667 C5,3.23133333 5.23133333,3 5.51666667,3 C5.802,3 6.03333333,3.23133333 6.03333333,3.51666667 Z" id="Fill-4" fill="#FFFFFF"></path>
                                        <path d="M7.03333333,3.51666667 C7.03333333,3.802 6.802,4.03333333 6.51666667,4.03333333 C6.23133333,4.03333333 6,3.802 6,3.51666667 C6,3.23133333 6.23133333,3 6.51666667,3 C6.802,3 7.03333333,3.23133333 7.03333333,3.51666667 Z" id="Fill-6" fill="#FFFFFF"></path>
                                        <path d="M11.0333333,3.51666667 C11.0333333,3.802 10.802,4.03333333 10.5166667,4.03333333 C10.2313333,4.03333333 10,3.802 10,3.51666667 C10,3.23133333 10.2313333,3 10.5166667,3 C10.802,3 11.0333333,3.23133333 11.0333333,3.51666667 Z" id="Fill-4-Copy" fill="#FFFFFF"></path>
                                        <path d="M13.0333333,3.51666667 C13.0333333,3.802 12.802,4.03333333 12.5166667,4.03333333 C12.2313333,4.03333333 12,3.802 12,3.51666667 C12,3.23133333 12.2313333,3 12.5166667,3 C12.802,3 13.0333333,3.23133333 13.0333333,3.51666667 Z" id="Fill-6-Copy" fill="#FFFFFF"></path>
                                        <path d="M9.03333333,3.51666667 C9.03333333,3.802 8.802,4.03333333 8.51666667,4.03333333 C8.23133333,4.03333333 8,3.802 8,3.51666667 C8,3.23133333 8.23133333,3 8.51666667,3 C8.802,3 9.03333333,3.23133333 9.03333333,3.51666667 Z" id="Fill-8-Copy" fill="#FFFFFF"></path>
                                    </g>
                                </g>
                            </g>
                            <g id="Group-19" transform="translate(38.000000, 37.000000)">
                                <mask id="mask-16" fill="white">
                                    <use xlink:href="#path-15"></use>
                                </mask>
                                <g id="Clip-18"></g>
                                <path d="M16.8565385,11.94328 C16.0546923,10.48968 14.6068462,9.678 13.1579231,9.70616 L15.7203846,8.17752 C17.7226923,6.98312 18.4146923,4.3268 17.2662308,2.24456 C16.1177692,0.16232 13.5637692,-0.55752 11.5614615,0.63688 L2.64161538,5.95816 C0.493,7.23992 -0.509153846,10.04728 0.575153846,12.10776 C1.36469231,13.60824 2.95238462,14.3772 4.59653846,14.24632 L2.84730769,15.28968 C0.804384615,16.5084 -0.103615385,19.25976 0.982538462,21.31912 C1.77376923,22.81944 3.31976923,23.614 4.90115385,23.51992 L4.00623077,24.05384 C2.24976923,25.10168 1.59776923,27.70008 2.68915385,29.7564 C3.82207692,31.89096 6.24207692,32.74168 8.05746154,31.6588 L15.4571538,27.2444 C17.0940769,26.26792 17.4897692,23.78824 16.3413077,21.70616 C15.5391538,20.25176 14.1960769,19.37704 12.9011538,19.31352 L15.4885385,17.77016 C17.3925385,16.63432 18.005,14.02552 16.8565385,11.94328" id="Fill-17" fill="#000000" mask="url(#mask-16)"></path>
                            </g>
                            <g id="Group-48" transform="translate(21.000000, 36.000000)">
                                <path d="M35.5333538,2.2583075 C34.3009245,0.163284311 31.5601934,-0.560974898 29.4114906,0.64091869 L19.8393208,5.99470587 C17.5339434,7.28433479 16.4583538,10.1089296 17.6219387,12.1822202 C18.8296038,14.3342311 21.7781887,14.9934535 24.1609953,13.6606813 L33.8744858,8.22769086 C36.0231887,7.02595825 36.765783,4.3533307 35.5333538,2.2583075" id="Fill-20" fill="#FABB86"></path>
                                <path d="M23.3382972,7.15954134 C22.9021179,6.41821801 21.9323538,6.16193424 21.1720943,6.5870884 L20.0430142,7.21862183 C18.4795708,8.09307749 17.8358679,10.1513967 18.6649717,11.6232576 L18.6856085,11.6588347 C19.5830613,13.2065181 21.6112453,13.7490284 23.192684,12.8644308 L24.4507028,12.1607774 C25.2111274,11.7354622 25.4739575,10.7898524 25.0377783,10.0483681 L23.3382972,7.15954134 Z" id="Fill-22" fill="#FCD7B7"></path>
                                <path d="M35.093691,12.0166016 C33.8610967,9.92157844 31.2057193,9.1495075 29.1626769,10.2923206 L20.0602005,15.3835457 C17.8677476,16.6097476 16.8935259,19.3779986 18.0589269,21.4500014 C19.2689033,23.6008854 22.1228892,24.3130709 24.388809,23.0456576 L33.6256722,17.8792538 C35.6688797,16.7364407 36.3261203,14.1116248 35.093691,12.0166016" id="Fill-24" fill="#FABB86"></path>
                                <path d="M23.775533,16.4274191 C23.3393538,15.6860958 22.3694245,15.429812 21.6091651,15.8549662 L20.48025,16.4863386 C18.9166415,17.3609553 18.2729387,19.4192745 19.1020425,20.8911353 L19.1226792,20.9267124 C20.0201321,22.4743959 22.048316,23.0169061 23.6299198,22.1323086 L24.8879387,21.4284941 C25.6483632,21.00334 25.9111934,20.0575692 25.4750142,19.3162458 L23.775533,16.4274191 Z" id="Fill-26" fill="#FCD7B7"></path>
                                <path d="M34.5408561,21.8393531 C33.3084269,19.7441689 30.8853373,18.8423462 29.1290637,19.82466 L21.3037571,24.2016068 C19.418875,25.2558797 18.7193703,27.8702317 19.8905495,29.9390147 C21.1063042,32.0866791 23.7030731,32.9427828 25.6511863,31.8530939 L33.592059,27.4115932 C35.3486627,26.4292794 35.7732854,23.9345372 34.5408561,21.8393531" id="Fill-28" fill="#FABB86"></path>
                                <path d="M25.6070566,24.9164003 C25.1708774,24.1752379 24.2011132,23.9189542 23.4408538,24.3441083 L22.3119387,24.9754808 C20.7483302,25.8500974 20.1046274,27.9084166 20.9337311,29.3802775 L20.9543679,29.4158546 C21.8518208,30.9633771 23.8800047,31.5060483 25.4614434,30.6212898 L26.7194623,29.9176363 C27.4798868,29.4924821 27.742717,28.5467113 27.3065377,27.805227 L25.6070566,24.9164003 Z" id="Fill-30" fill="#FCD7B7"></path>
                                <path d="M58.422941,62.5035097 L55.8618325,63.417084 L54.7870684,60.5517607 L52.8904646,61.2282082 L51.2423278,56.8351632 C50.7921156,55.6350404 50.5378703,54.3732614 50.4891675,53.0961891 C50.2420212,46.6221263 48.9537901,40.225979 46.6710307,34.1416543 L43.4665495,25.6000963 C42.6339788,23.3807948 40.0329175,22.0607402 37.7419033,22.8318453 C35.3638844,23.6324101 34.1309599,26.174964 34.9915967,28.4688003 L34.1316203,26.1765738 C33.2807241,23.9083337 30.7050873,22.7421782 28.3790731,23.5718808 L28.378908,23.5720417 C26.0527288,24.4017443 24.8567854,26.9132286 25.7078467,29.1814688 L25.2777759,28.035275 C24.4267146,25.7670349 21.8510778,24.6010404 19.5250637,25.430743 C17.1988844,26.2604456 16.002941,28.7719299 16.8540024,31.04017 L9.38001651,11.1187757 C8.54728066,8.89947422 5.94638443,7.57925866 3.65537028,8.35052469 C1.27718632,9.1510895 0.0445919811,11.6936434 0.905063679,13.9874797 L13.9716203,48.8159926 L7.82631368,42.7902655 C6.11725708,41.1146011 3.18848349,40.9774442 1.43897877,42.613024 C-0.377058962,44.310743 -0.405125,47.1229422 1.36121934,48.8549503 L14.9331297,62.1627102 C16.7503231,63.9444619 18.9143797,65.3541836 21.298342,66.3088085 C22.5679175,66.8171905 23.5598042,67.8228467 24.0313137,69.0796352 L24.8396156,71.2342218 L20.7758184,72.6838671 L21.8509127,75.5491905 L19.2898042,76.4627648 L30.3711014,105.999952 L69.5044033,92.0406966 L58.422941,62.5035097 Z" id="Fill-32" fill="#000000"></path>
                                <path d="M18.3090448,50.4339288 L8.27626179,40.5964636 C6.56720519,38.9206382 3.6384316,38.7838033 1.88892689,40.4192221 C0.0728891509,42.1169411 0.0449882075,44.9291402 1.81116745,46.6609874 L15.3830778,59.9687473 C17.2002712,61.75066 19.3644929,63.1603817 21.7482901,64.1150065 C23.0178656,64.6235495 24.0097524,65.6290447 24.4812618,66.8858333 L26.2145873,71.5058633 L35.6697052,68.1331239 L18.3090448,50.4339288 Z" id="Fill-34" fill="#FABB86"></path>
                                <path d="M8.08270519,40.4187553 L17.9799458,55.4049162 L14.8383656,47.0306188 L8.27636085,40.5964797 C8.21345991,40.5349844 8.14857783,40.4760649 8.08270519,40.4187553" id="Fill-36" fill="#E3A574"></path>
                                <path d="M1.84273349,42.7960608 C1.19358255,43.4255015 1.19077594,44.4488658 1.83612972,45.081687 L4.01306368,47.2163119 C4.63117689,47.8224101 5.63610613,47.8249858 6.25752123,47.2222682 C6.93424292,46.5662655 6.93721462,45.499436 6.26429009,44.8395697 L4.18674292,42.8025001 C3.54122406,42.1695179 2.49188443,42.1667812 1.84273349,42.7960608" id="Fill-38" fill="#FCD7B7"></path>
                                <path d="M38.1919505,20.6380595 C35.8137665,21.4386243 34.5810071,23.9811782 35.4416439,26.2751754 L34.5816675,23.982627 C33.7307712,21.7145479 31.1551344,20.5482314 28.8287901,21.3782559 C26.5026108,22.2079585 25.3066675,24.7194428 26.1577288,26.987522 L25.7278231,25.8414892 C24.8767618,23.5730881 22.301125,22.4070936 19.9749458,23.2369572 C17.6487665,24.0666598 16.4528231,26.5779831 17.3038844,28.8463842 L9.83006368,8.92482892 C8.99732783,6.70552742 6.39626651,5.38563383 4.10541745,6.15673888 C1.72723349,6.95730368 0.494474057,9.49985757 1.35511085,11.7936939 L18.0761958,56.3634046 L34.9666675,70.7589217 L24.8330118,74.3736175 L28.1581769,83.236818 L58.3763844,72.4576065 L51.6922099,54.6415383 C51.2421627,53.4412546 50.9879175,52.1796366 50.9392146,50.9024033 C50.6920684,44.4281795 49.4036722,38.0321932 47.1210778,31.9480295 L43.9165967,23.4063105 C43.0840259,21.186848 40.4827995,19.8669544 38.1919505,20.6380595" id="Fill-40" fill="#FABB86"></path>
                                <path d="M8.21426887,12.5005831 C9.03742925,12.2069514 9.46073113,11.3181683 9.15959906,10.5156718 L8.71252358,9.32392005 C8.09325472,7.67320791 6.12169811,6.70602647 4.49370283,7.25384911 L4.45424528,7.26769359 C2.73808962,7.86815744 1.84641509,9.72540982 2.47278302,11.3951179 L2.97103774,12.7230606 C3.27216981,13.5257181 4.18365566,13.9384767 5.00681604,13.644684 L8.21426887,12.5005831 Z" id="Fill-46" fill="#FCD7B7"></path>
                            </g>
                        </g>
                    </g>
                </g>
            </g>
        </g>
    </g>
</svg>